<svg fill="none" height="132" viewBox="0 0 918 132" width="918" xmlns="http://www.w3.org/2000/svg" xmlns:xlink="http://www.w3.org/1999/xlink"><clipPath id="a"><path d="m0 0h918v132h-918z"/></clipPath><g clip-path="url(#a)"><path d="m0 0h918v132h-918z" fill="#0f172a"/><path d="m872.009 93.5v-55h11.8v10.5h3.1l-3.7 6.4c0-5.9333 1.333-10.4 4-13.4 2.666-3 6.6-4.5 11.8-4.5 5.933 0 10.6 1.8333 14 5.5s5.1 8.7333 5.1 15.2v4h-13.1v-3.1c0-3.5333-.934-6.2667-2.8-8.2-1.8-1.9333-4.3-2.9-7.5-2.9-3.267 0-5.8.9667-7.6 2.9-1.734 1.9333-2.6 4.6667-2.6 8.2v34.4z" fill="#fff"/><path d="m832.748 94.5c-4.666 0-8.733-.9-12.2-2.7-3.466-1.8-6.166-4.3-8.1-7.5-1.866-3.2667-2.8-7.0667-2.8-11.4v-13.8c0-4.3333.934-8.1 2.8-11.3 1.934-3.2667 4.634-5.8 8.1-7.6 3.467-1.8 7.534-2.7 12.2-2.7 4.6 0 8.6.9 12 2.7 3.467 1.8 6.134 4.3333 8 7.6 1.934 3.2 2.9 6.9667 2.9 11.3v9.9h-33.9v3.9c0 3.8667.934 6.8 2.8 8.8 1.867 1.9333 4.634 2.9 8.3 2.9 2.8 0 5.067-.4667 6.8-1.4 1.734-1 2.834-2.4333 3.3-4.3h12.3c-.933 4.7333-3.466 8.5333-7.6 11.4-4.066 2.8-9.033 4.2-14.9 4.2zm10.8-32.5v-3c0-3.8-.9-6.7-2.7-8.7-1.8-2.0667-4.5-3.1-8.1-3.1s-6.333 1.0333-8.2 3.1c-1.866 2.0667-2.8 5-2.8 8.8v2.1l22.7-.2z" fill="#fff"/><path d="m763.187 93.5v-37.6h-15.1v-11.3h15.1v-8.3c0-4.8 1.6-8.6333 4.8-11.5s7.433-4.3 12.7-4.3h16.1v11h-15.8c-1.6 0-2.9.4667-3.9 1.4-.933.8667-1.4 2.0667-1.4 3.6v8.1h21.1v11.3h-21.1v37.6z" fill="#fff"/><path d="m703.226 93.5v-37.6h-15.1v-11.3h15.1v-8.3c0-4.8 1.6-8.6333 4.8-11.5s7.433-4.3 12.7-4.3h16.1v11h-15.8c-1.6 0-2.9.4667-3.9 1.4-.933.8667-1.4 2.0667-1.4 3.6v8.1h21.1v11.3h-21.1v37.6z" fill="#fff"/><path d="m652.766 94.5c-7 0-12.5-1.9333-16.5-5.8-4-3.9333-6-9.2667-6-16v-34.2h12.5v34.1c0 3.5333.866 6.2667 2.6 8.2 1.733 1.8667 4.2 2.8 7.4 2.8 3.133 0 5.566-.9333 7.3-2.8 1.8-1.9333 2.7-4.6667 2.7-8.2v-34.1h12.5v34.2c0 6.7333-2.034 12.0667-6.1 16-4.067 3.8667-9.534 5.8-16.4 5.8z" fill="#fff"/><path d="m570.505 111.5v-73h12.2v10.5h2.8l-2.8 2.9c0-4.4667 1.333-7.9667 4-10.5 2.667-2.6 6.267-3.9 10.8-3.9 5.533 0 9.967 1.9 13.3 5.7s5 8.9 5 15.3v14.9c0 4.2667-.767 8-2.3 11.2-1.467 3.1333-3.567 5.5667-6.3 7.3s-5.967 2.6-9.7 2.6c-4.533 0-8.133-1.2667-10.8-3.8-2.667-2.6-4-6.1333-4-10.6l2.8 2.9h-2.9l.4 13.1v15.4zm22.6-27.8c3.2 0 5.7-.9333 7.5-2.8s2.7-4.5333 2.7-8v-13.8c0-3.4667-.9-6.1333-2.7-8s-4.3-2.8-7.5-2.8c-3.133 0-5.6.9667-7.4 2.9-1.8 1.8667-2.7 4.5-2.7 7.9v13.8c0 3.4.9 6.0667 2.7 8 1.8 1.8667 4.267 2.8 7.4 2.8z" fill="#fff"/><path d="m532.844 94.4001c-4.667 0-8.734-.8667-12.2-2.6-3.4-1.8-6.067-4.3-8-7.5-1.867-3.2667-2.8-7.1-2.8-11.5v-13.6c0-4.4.933-8.2 2.8-11.4 1.933-3.2667 4.6-5.7667 8-7.5 3.466-1.8 7.533-2.7 12.2-2.7 4.733 0 8.8.9 12.2 2.7 3.4 1.7333 6.033 4.2333 7.9 7.5 1.933 3.2 2.9 6.9667 2.9 11.3v13.7c0 4.4-.967 8.2333-2.9 11.5-1.867 3.2-4.5 5.7-7.9 7.5-3.4 1.7333-7.467 2.6-12.2 2.6zm0-10.9c3.333 0 5.9-.9 7.7-2.7 1.866-1.8667 2.8-4.5333 2.8-8v-13.6c0-3.5333-.934-6.2-2.8-8-1.8-1.8-4.367-2.7-7.7-2.7-3.267 0-5.834.9-7.7 2.7-1.867 1.8-2.8 4.4667-2.8 8v13.6c0 3.4667.933 6.1333 2.8 8 1.866 1.8 4.433 2.7 7.7 2.7z" fill="#fff"/><path d="m477.583 94.5c-4.533 0-8.133-1.2667-10.8-3.8-2.667-2.6-4-6.1333-4-10.6l2.8 2.9h-2.8v10.5h-12.2v-73h12.5v15.4l-.4 13.1h2.9l-2.8 2.9c0-4.4667 1.333-7.9667 4-10.5 2.667-2.6 6.267-3.9 10.8-3.9 5.533 0 9.967 1.9 13.3 5.7s5 8.9333 5 15.4v14.9c0 6.4-1.667 11.5-5 15.3s-7.767 5.7-13.3 5.7zm-4.4-10.8c3.2 0 5.7-.9333 7.5-2.8s2.7-4.5333 2.7-8v-13.8c0-3.4667-.9-6.1333-2.7-8s-4.3-2.8-7.5-2.8c-3.133 0-5.6.9667-7.4 2.9-1.8 1.8667-2.7 4.5-2.7 7.9v13.8c0 3.4.9 6.0667 2.7 8 1.8 1.8667 4.267 2.8 7.4 2.8z" fill="#fff"/><path d="m392.321 93.5v-55h11.8v10.5h3.1l-3.7 6.4c0-5.9333 1.334-10.4 4-13.4 2.667-3 6.6-4.5 11.8-4.5 5.934 0 10.6 1.8333 14 5.5s5.1 8.7333 5.1 15.2v4h-13.1v-3.1c0-3.5333-.933-6.2667-2.8-8.2-1.8-1.9333-4.3-2.9-7.5-2.9-3.266 0-5.8.9667-7.6 2.9-1.733 1.9333-2.6 4.6667-2.6 8.2v34.4z" fill="#fff"/><path d="m352.961 94.5c-7 0-12.5-1.9333-16.5-5.8-4-3.9333-6-9.2667-6-16v-34.2h12.5v34.1c0 3.5333.867 6.2667 2.6 8.2 1.733 1.8667 4.2 2.8 7.4 2.8 3.133 0 5.567-.9333 7.3-2.8 1.8-1.9333 2.7-4.6667 2.7-8.2v-34.1h12.5v34.2c0 6.7333-2.033 12.0667-6.1 16-4.067 3.8667-9.533 5.8-16.4 5.8z" fill="#fff"/><path d="m299 93.5c-5.267 0-9.4-1.4667-12.4-4.4-2.934-2.9333-4.4-6.9667-4.4-12.1v-27.2h-14.9v-11.3h14.9v-15.5h12.6v15.5h21.1v11.3h-21.1v27.2c0 3.4667 1.7 5.2 5.1 5.2h15v11.3z" fill="#fff"/><path clip-rule="evenodd" d="m66 53.75h-10.25v5.25h10.25zm-5.25 10.5h-9v9.75h9zm10.25 6.5h10.5v11.25h10.5v5h5.25v9.75h9.5v10h63.75v15.25h-11.75v5h-46.75v-5h-16v-10h-9.75v-9.75h-5v-5h-5.25v-15.25h-5z" fill="#9cdae0" fill-rule="evenodd"/><path clip-rule="evenodd" d="m91.25 39.75h113.25v46.75 1.25 4h-5.5v5.5 4.75h-5.25v4.75h-5.25v5.5h-5.25v5h-42v-5h-14v-5.5h-15.25v-4.75h-5.5v-4.75h-15.25v-9.5-2.25z" fill="#b7e2f4" fill-rule="evenodd"/><path clip-rule="evenodd" d="m113 .5h46v4.25h6.25v10h12.75v5h10.25v9.75h5.5v23.5h-5.5-7.25-3-2.5-10.25-6.25-6.5-5-15.25-13.25v14h-38v-33.25h5.25v-14h15.25v-5h5v-5h6.5zm-57.25 34h5v8.75h5.25v7h-5.25v3.5h-5z" fill="#d6bfa2" fill-rule="evenodd"/><path clip-rule="evenodd" d="m150.5 5.25h9v4.75h-9zm0 9.75h-13.75v-5h13.75zm0 0h4.75v4.75h9.75v-5h5.25v5h-5v4.75h14v5.5h-4.25v9.75h-4.75v-9.75h-10.25v-5.5h-9.5v-4.5-.25zm38.25 14.75h-9v9.75h9zm-28.75 14.5h-7.25v8.75.25 8.75h-5.75v4.5h-15-4.75v-4.5h-5v-9h-5v9h-5.25v4.25h-5.5v5.25h5.5v10h5.25v-4.75h4.75v10h5.25v5h4.75 4.75v-5.25h-4.75v-5h9.5v5.25h5.25v5h3.75v5h9.75v-5h5v5h19v-5h9.75 15v-35.5h-22v-12h-15.75v8.75h-11.25zm24.25 17.25h-13v.5 4.5h-4.75v10l3.25 4.625h2.625v5.375h11.875zm-96-10h3.25v4.75h9.5v1.5h-12.75v-1.5zm104.25-12h7v9.5h-7zm-75.25-24.5h5v4.75h-5zm33.25 9.75h-9.25v4.75h-4.5v5h10v4.75h13.25v-4.75h-4.75v-5h-4.75zm-23.25 0h9.25v5h-9.25zm19.5 14.75h-9.75v9.5h9.75z" fill="#fffff3" fill-rule="evenodd"/><path clip-rule="evenodd" d="m106.5 24.75h5.5v4.75h-5.5zm-50.75 4.75h-8.5v29.5h8.5zm45.25 26.75h-12.75v-4.75h-1.75v4.75h-5v10h4.75v10h14.75v-10zm21.25-26.5h-5.25v4.75h5.25zm-20.5 51.75h10.25v5.25h-10.25zm39.75 0h-9.5v5h4.75v5h-4.75v5.25h9.25v5h9.25v-5-5.25h-9v-5zm-19.5 5.25h5.25v5h-5.25zm28.75 15.25h9.25v5h-9.25zm24.25 0h-4.75v-5.25h-10.25v5.25h5.25v4.75h9.75zm0 0h14v-5.25h5v-5h-9.75v5h-9.25zm29.25-20.25h-4.75v4.75h4.75zm-28.75-25h8.75v4.75h-13l.5-1.125zm33.5 14.75h-4.75v4.75h4.75z" fill="#ffe295" fill-rule="evenodd"/><path clip-rule="evenodd" d="m55.75 36.5h-4.25v3 4.75h9v-4.75h-4.75z" fill="#fffff3" fill-rule="evenodd"/><path clip-rule="evenodd" d="m101.25 24.5h-5.25l-4.5 4.5v.75h9.75zm-30 19.75h4.75v8.25h-4.75zm-5.25 20h5v5h-5zm25.25 17.25h-5.25v5h5.25zm102.75 15.25h-5v5.25h5zm-10.75 10.25h-5v5.25h5zm-12.75 5h7.25v5h-7.25zm-53.5 10h-5v5h5zm-13.5-20h8.5v5h-8.5zm-42.75-33h-5v5h5z" fill="#213260" fill-rule="evenodd"/><g fill="#fff3cc"><path d="m.5 30h4v4.25h-4z"/><path d="m9.25 44.5h3.5v4.25h-3.5z"/><path d="m17.75 44.5h3v4.25h-3z"/><path d="m21.75 107.5h8.5v4.25h-8.5z"/><path d="m35 107.5h35.5v4.25h-35.5z"/><path d="m52.5 98h3.75v4.25h-3.75z"/><path d="m66 97.5h10v4.75h-10z"/><path d="m1 107.5h7.75v4.25h-7.75z"/><path d="m13.5 93.25h57.5v4.25h-57.5z"/><path d="m22.25 44.5h25v4.25h-25z"/><path d="m1 60.5h24.75v4.25h-24.75z"/><path d="m21.75 69.75h25.5v4.25h-25.5z"/><path d="m17.75 83.75h48.25v4.25h-48.25z"/><path d="m5 83.75h8v4.25h-8z"/><path d="m9.25 30h4v4.25h-4z"/><path d="m17.5 30h4v4.25h-4z"/><path d="m1 44.5h3.5v4.25h-3.5z"/><path d="m26.25 30h21v4.25h-21z"/><path d="m63.75 29.5h12.25v4.75h-12.25z"/><path d="m5 69.75h3.75v4.25h-3.75z"/><path d="m30.5 60.5h3.75v4.25h-3.75z"/><path d="m1 93.25h3.5v4.25h-3.5z"/></g><path clip-rule="evenodd" d="m117 5.25h-4.5v4.75h4.5zm-15.5 4.75h5.25v5h-5.25v4.75h-5.25v-5h5.25zm-20.25 19.5h5v9.75h-5v16.75h-5v3 5.25 8h-5.25v-8h-5v-5.25h5v-6.5h5v-8.25h-4.75v-4.75h4.75v-5.25h5.25zm5 0 4.5-5h-4.5zm-25.5 29.5h-13.5v5.25h13.5zm45.75 2.75h-5.5v7.75h5.5zm-15.5 9.5h4.75v5h-4.75zm-15 11.25h-5v5.25h5zm0 9.5h5.25v5.25h-5.25zm10.25 10h-5v5h5zm15.5 15h5v5h-5zm-.5-77.5h-5v2l-5 4.75h4.5v3h5.5v-2.25-.75-6.5h5.5v-5.25h-5.5zm5.25 9.75h5.5l-1.75 3.75h-3.75l-5.25 3.25v-4.75h.25l5-4.75zm25.5-44h4.75v4.75h-4.75zm-20 14.5h10.25v5 5h-5.25v-5h-5zm20-5h-4.75v5h4.75zm4.5 5h4.75v5h-4.75zm14-4.75h-4.5v5h4.5zm0 9.5h9.5v5h-9.5zm14.5-9.75h-5.25v5h5.25zm0 0h5.25v-5h-5.25zm10 5h-4.75v4.75h4.75zm0 10.25h4.75v4.75h-4.75zm-4.75 4.5h-5v5h5zm-10.25 9.5h5v5h-5zm20 .25-5 4.75v4h5zm-114-5h-5.5v5h5.5zm-5.25 9.25h5.25v5.25h-8.75v-1.75h1.5v-1h.75v-1h1.25zm-.25-19h-4.75v5h4.75zm35.25-9.75h-4.5v5zm21.25 19.75h-4.5l4.5-5zm5.25 4.75-10.25 10.25v2.875h5.25v-4.375h5z" fill="#6d6a94" fill-rule="evenodd"/><path clip-rule="evenodd" d="m132 .5h-20v4.25h-5.25v5.25h5.75v-4.75h19.5zm-35.75 9.75h5.25v4.5h-5.25v5h-5v4.75h-5v-5h5v-5h5zm-15 19.25v-5h5v5zm-5.25 4.75v-4.75h5.25v4.75zm-10 24.75v-20h5.25v-4.75h4.75v5.25h-4.75v19.5zm15.25 38.25v5h-5.25v-4.75h-5v-9.5h-5v-18.25h-2.25v4.5h-3.25v4.75h-9v-4.75h-4.25v-10h4.5v9.75h8.75v-4.75h.25v-10.25h5.25v10.25h5v18.5h5v9.5zm0 0v-5.25h4.75v5.25zm-29.75-72.5h8.75v4.75h-8.5v5h-4.5v-5h4.25zm12.25 4.75h-3.25v9.75h3.25zm48.25 57.25h-10.25v5h10.25zm38.25 20h-8.75v5h8.75zm4.75 5.25h5.25v5h-5.25zm-18.25-111.5h22.75v4.25h5.75v5.25h-5.75v-4.75h-22.75zm33.5 9.5h7.5v4.5h5.25v5h5.5v5h5.25v4.75h4.75v5h5.25v5.25h4.5v4.75h.75v11.75h5v20.5h-4.75v15.25h-5v10.25h-5.25v5.25h-5.25v5h-5.25v4.75h-5.25v-5h5.25v-5.25h5.25v-5h5.25v-10.5h5.25v-15h4.75v-19.75h-5.25v5h-4.75v5h-5v-5h-4v-5.25h-3v-6.5-5.5-4.75h5.5v4.75h3v4.75h4v-4.25-.5-4.75h-1-4.75v-9.75h-5.25v-5h-5.5v-5h-5.25v-5h-7.5zm13 107v5h-12.5v5h-11.75v4.75h-46.75v-4.75h46.5v-5h11.75v-5zm-6-55.5h-6v4.75h-4.75v10h4.75v1.25l3.5 3.5h11.75c1.519 0 2.75-1.2312 2.75-2.75v-2h4.5v-5h-4.25v-5h-12.25zm0 4.75v5h12v5h-18v-10zm-75.25 55.75h10v4.5h-10zm-.25-5h-5.5v-5h5v-5.25h-5v5.25h-10v-5h5v-5.25h-5v5.25h-4.75v5h4.75v5h6v5h9.5zm-5.5-25.5h-5v5.5h5zm-20.25-9.5h5.25v5.5h-5.25zm5.25-26h-5v14.75h5.25v10.75h4.75 5v5.25h4.5v-5.25-5h5.5v-5.25h-5.5v5h-9.5v-10h9.5v-4.75h-9.75v4.75h-4.5v-10h5v-4.75h5v4.75h9.5v5.5h5.5v-5.5h-5.25v-4.75h-5.5v-5.25h-9.5v5h-5zm25.25-12h5.5v5.25h-5.5zm-20.5-9.5h5.25v5h-5v4.75h-5.25v-5h5zm20.5-5h5.25v5h-5.25zm15.75 5h-5.25v5h5.25zm-15.5-19.75h5.25v5h-5.25zm20.75-4.75h-5.25v5h5.25zm-.25 47.25v4.5h4.25v4.75h5.5 4.25 5.75v-9h1.25 3 1.5v-13.25h-1.5v-5h-4.5v-4.75h-9.75-5.5v5h-4.25v4.75h-5v13zm9.75-17.75v4.75h4.25v4.75h5.5v-9.5zm-94.25 14.5h4.5v5h-4.5zm14-9.75h-5.25v4.75h5.25zm65.25 52.5h-5v5.25h5zm.25 10.25h5v5.25h-5zm28.75 10h-5v5.25h5zm-34-.25h5v5.25h-5zm-5-4.75h-5.25v5h5.25z" fill="#010529" fill-rule="evenodd"/><path clip-rule="evenodd" d="m177.25 61.5h7v4.75h-7zm0 9.75v-5h-6v5zm0 0v5h7v-5z" fill="#fb915f" fill-rule="evenodd"/><path d="m171.25 71.25h6v5h-6z" fill="#9c4987"/><path clip-rule="evenodd" d="m71 76.75h5v5.75h-5zm56.25 45.25h17.5v5h-17.5zm14-9.75h-9.5v5h9.5zm12 9.75h5.5v5h-5.5zm17.25-5h-5.5v5h5.5z" fill="#59a6c7" fill-rule="evenodd"/></g></svg>